<?xml version="1.0" encoding="utf-8"?>
<!DOCTYPE svg PUBLIC "-//W3C//DTD SVG 1.0//EN" "http://www.w3.org/TR/2001/REC-SVG-20010904/DTD/svg10.dtd">
<svg version="1.0" xmlns="http://www.w3.org/2000/svg" width="155px" height="153px" viewBox="0 0 155 153" preserveAspectRatio="xMidYMid meet">
 <g fill="#000000">
  <path d="M0 76.5 l0 -76.5 77.5 0 77.5 0 0 76.5 0 76.5 -77.5 0 -77.5 0 0 -76.5z m74.5 55.5 c0.4 -0.6 -0.5 -1 -2 -1 -1.5 0 -2.4 0.4 -2 1 0.3 0.6 1.2 1 2 1 0.8 0 1.7 -0.4 2 -1z m-13 -7.5 c-2.1 -1 -7.2 -1.4 -17.5 -1.4 -13.4 0.1 -14.2 0.2 -10.5 1.4 2.5 0.9 9 1.3 17.5 1.3 12.2 0 13.2 -0.1 10.5 -1.3z m49.5 0 c3.2 -1.3 2.2 -1.4 -11.7 -1.2 -10.6 0.1 -15.6 0.6 -16.5 1.5 -1.8 1.8 23.4 1.5 28.2 -0.3z m11.6 -10 c1.8 -4.3 1.8 -5.5 0 -5.5 -0.9 0 -1.5 1.5 -1.8 4.5 -0.2 2.5 -0.2 4.5 0 4.5 0.2 0 1 -1.6 1.8 -3.5z m-99.4 -1.7 c-0.2 -2.1 -0.8 -3.8 -1.3 -3.8 -1.2 0 -1.1 2.2 0.1 5.6 1.4 3.5 1.8 2.8 1.2 -1.8z m30.6 -34.3 c0.1 -15.8 -0.1 -24.2 -0.8 -24.9 -1.6 -1.6 -3 1.1 -3 5.7 l0 3.7 -11 0 c-6.7 0 -11 0.4 -11 1 0 0.6 4.3 1 11 1 l11 0 0 13 0 13 -10.9 0 c-6.3 0 -11.2 0.4 -11.6 1 -0.4 0.6 3.5 1 10.9 1 l11.6 0 0 3.4 c0 4.3 0.9 6.8 2.4 6.3 0.8 -0.3 1.2 -7.6 1.4 -24.2z m25.8 19.7 c5.3 -2.7 10.7 -8.8 12.9 -14.6 1.2 -3 2.5 -4.8 3.9 -5.1 1.2 -0.3 8.2 -0.6 15.6 -0.8 l13.5 -0.3 -15.3 -0.2 -15.2 -0.2 -3.1 -6.5 c-4.6 -9.7 -12.4 -15.2 -22.5 -15.7 l-4.9 -0.3 -0.3 23.4 -0.2 23.4 5.8 -0.5 c3.2 -0.3 7.6 -1.5 9.8 -2.6z m-56.6 -56.6 c0 -1.4 0.4 -3.6 1 -5 1.4 -3.9 0.1 -3.1 -1.6 0.9 -1.6 4 -1.8 6.5 -0.4 6.5 0.6 0 1 -1.1 1 -2.4z m36 -14 c1.9 -0.1 -3 -0.3 -11 -0.4 -8 -0.1 -15 0.2 -15.7 0.6 -1 0.6 18.7 0.6 26.7 -0.2z m45.3 -0.3 c-4 -0.2 -10.6 -0.2 -14.5 0 -4 0.1 -0.8 0.3 7.2 0.3 8 0 11.2 -0.2 7.3 -0.3z m-29.8 -7.3 c-0.3 -0.5 -1.3 -1 -2.1 -1 -0.8 0 -1.4 0.5 -1.4 1 0 0.6 0.9 1 2.1 1 1.1 0 1.7 -0.4 1.4 -1z"/>
 </g>
 <g fill="#35b8d9">
  <path d="M66.1 133 l-3.9 -4 -13.4 0 c-16.5 0 -22.4 -1.5 -26.6 -6.6 -3.1 -3.8 -5.6 -10.8 -5 -14 0.3 -1.5 1.2 -1.9 4.8 -1.9 3.3 0 4.4 0.4 4.2 1.4 -0.6 2.7 1 7 3.5 9.5 2.5 2.6 2.8 2.6 16.9 2.6 15.7 0 18.3 0.6 23.2 5.3 l3.2 3.1 4 -4 4.1 -3.9 15.9 -0.3 15.9 -0.3 2.6 -3 c1.7 -2.1 2.5 -4.2 2.5 -7 l0 -3.9 4.5 0 4.5 0 0 4 c0 5.2 -2 9.8 -5.6 13.2 -4.9 4.6 -10.2 5.8 -24.8 5.8 l-13.2 0 -3.9 4 c-2.7 2.8 -4.8 4 -6.7 4 -1.9 0 -4 -1.3 -6.7 -4z"/>
  <path d="M48.6 105.4 c-0.9 -0.9 -1.6 -3.2 -1.6 -5.5 l0 -3.9 -11.5 0 c-10.3 0 -11.5 -0.2 -12.5 -1.9 -1.3 -2.5 -1.3 -2.7 0.6 -4.5 1.2 -1.3 3.9 -1.6 12.5 -1.6 l10.9 0 0 -10 0 -10 -10.9 0 c-8.6 0 -11.3 -0.3 -12.5 -1.6 -2 -1.9 -2 -2.9 0 -4.8 1.2 -1.3 3.9 -1.6 12.5 -1.6 l10.9 0 0 -3.6 c0 -5 1.5 -7.4 4.8 -7.4 5.1 0 5.2 0.4 5.2 29.2 0 25.4 -0.1 26.8 -1.9 27.8 -2.7 1.4 -4.7 1.3 -6.5 -0.6z"/>
  <path d="M61.2 77.9 l0.3 -26.4 7.5 0.1 c12.9 0.2 20.8 5.1 26 16 l3.1 6.5 14.5 -0.3 c14.6 -0.3 14.6 -0.3 17 -3.1 3.1 -3.6 3.9 -7.1 2.8 -11.6 -0.7 -2.8 -1.8 -4 -4.7 -5.5 -4.2 -2 -5.7 -1.7 -10.9 2.5 -3.8 3.1 -9 2 -11.7 -2.5 -1.2 -1.8 -2.1 -4.1 -2.1 -5 0 -2.6 5.3 -7.6 8.8 -8.2 2.8 -0.6 3.7 -0.2 6.5 2.8 2.4 2.5 4.4 3.6 7.4 4 12.3 1.7 18.2 15.9 11 26.6 -4 6.2 -7.3 7.2 -23.4 7.2 -7.6 0 -14.3 0.4 -14.9 0.8 -0.6 0.4 -2.1 3 -3.3 5.7 -4.8 10.8 -12.2 15.6 -25.4 16.3 l-8.7 0.4 0.2 -26.3z m54.3 -28.9 c0 -1.8 -0.6 -2.6 -2.3 -2.8 -1.3 -0.2 -2.5 0.3 -2.8 1.2 -1 2.6 0.4 4.8 2.8 4.4 1.7 -0.2 2.3 -1 2.3 -2.8z"/>
  <path d="M17.3 45.3 c-0.9 -2.2 1.4 -10.1 4 -14 4.3 -6.3 7.6 -7.3 25 -7.3 l15.5 0 3.6 -4 c2 -2.3 4.9 -4.3 6.6 -4.6 2.4 -0.5 3.5 0 7.3 4 l4.5 4.6 14.9 0 c12.2 0 15.5 0.4 18.8 1.9 6.7 3 14.1 12.7 12.1 15.9 -1.1 1.8 -6.1 0 -8.1 -3.1 -3.9 -5.9 -8.1 -7.2 -25.7 -7.5 l-15.7 -0.3 -3.6 -3.5 -3.7 -3.5 -3.9 3.6 -3.9 3.5 -14 0 c-19.2 0 -23.4 2 -24.7 12 -0.5 3.9 -0.7 4 -4.5 4 -2.7 0 -4.1 -0.5 -4.5 -1.7z"/>
 </g>
</svg>